# xmcd CD database file
#
# Track frame offsets:
#	150
#	30322
#	57895
#	95549
#	123815
#	153285
#	185083
#	214307
#
# Disc length: 3402 seconds
#
# Revision: 0
# Processed by: cddbd v1.5.2PL0 Copyright (c) Steve Scherf et al.
# Submitted via: CDex 1.51
#
DISCID=640d4808
DTITLE=Cedar Walton - Voices Deep Within
DYEAR=2009
DGENRE=Jazz
TTITLE0=Voices Deep Within
TTITLE1=Memories of You
TTITLE2=Another Star
TTITLE3=Dear Ruth
TTITLE4=Something in Common
TTITLE5=Over the Rainbow
TTITLE6=Naima
TTITLE7=No Moe
EXTD=YEAR: 2009
EXTT0=
EXTT1=
EXTT2=
EXTT3=
EXTT4=
EXTT5=
EXTT6=
EXTT7=
PLAYORDER=
